<svg width="100%" height="100" viewBox="0 0 1700 200">
    <circle cx="1553" cy="178" r="25" fill="#941C00"/>
<path d="M1558.27 170.225H1549.89V175.2C1550.24 174.733 1550.76 174.342 1551.44 174.025C1552.14 173.708 1552.88 173.55 1553.67 173.55C1555.07 173.55 1556.2 173.85 1557.07 174.45C1557.95 175.05 1558.57 175.808 1558.94 176.725C1559.32 177.642 1559.52 178.608 1559.52 179.625C1559.52 180.858 1559.27 181.958 1558.79 182.925C1558.32 183.875 1557.62 184.625 1556.67 185.175C1555.73 185.725 1554.58 186 1553.22 186C1551.4 186 1549.94 185.55 1548.84 184.65C1547.74 183.75 1547.08 182.558 1546.87 181.075H1549.64C1549.82 181.858 1550.23 182.483 1550.87 182.95C1551.5 183.4 1552.29 183.625 1553.24 183.625C1554.42 183.625 1555.31 183.267 1555.89 182.55C1556.49 181.833 1556.79 180.883 1556.79 179.7C1556.79 178.5 1556.49 177.583 1555.89 176.95C1555.29 176.3 1554.41 175.975 1553.24 175.975C1552.42 175.975 1551.73 176.183 1551.17 176.6C1550.62 177 1550.22 177.55 1549.97 178.25H1547.27V167.725H1558.27V170.225Z" fill="white"/>
</svg>