<svg width="100%" height="100" viewBox="0 0 1700 300">
<g filter="url(#filter3_d_434_120)">
<rect x="157" y="141" width="1499" height="75" fill="white"/>
</g>
<circle cx="196.94" cy="178" r="10" fill="#941C00"/>
<circle cx="196.94" cy="178" r="10" fill="#941C00"/>
<circle cx="1553" cy="178" r="25" fill="#941C00"/>
<path d="M1558.27 170.225H1549.89V175.2C1550.24 174.733 1550.76 174.342 1551.44 174.025C1552.14 173.708 1552.88 173.55 1553.67 173.55C1555.07 173.55 1556.2 173.85 1557.07 174.45C1557.95 175.05 1558.57 175.808 1558.94 176.725C1559.32 177.642 1559.52 178.608 1559.52 179.625C1559.52 180.858 1559.27 181.958 1558.79 182.925C1558.32 183.875 1557.62 184.625 1556.67 185.175C1555.73 185.725 1554.58 186 1553.22 186C1551.4 186 1549.94 185.55 1548.84 184.65C1547.74 183.75 1547.08 182.558 1546.87 181.075H1549.64C1549.82 181.858 1550.23 182.483 1550.87 182.95C1551.5 183.4 1552.29 183.625 1553.24 183.625C1554.42 183.625 1555.31 183.267 1555.89 182.55C1556.49 181.833 1556.79 180.883 1556.79 179.7C1556.79 178.5 1556.49 177.583 1555.89 176.95C1555.29 176.3 1554.41 175.975 1553.24 175.975C1552.42 175.975 1551.73 176.183 1551.17 176.6C1550.62 177 1550.22 177.55 1549.97 178.25H1547.27V167.725H1558.27V170.225Z" fill="white"/>
<path d="M252.491 171.625L247.341 189H244.116L240.466 175.85L236.591 189L233.391 189.025L228.466 171.625H231.491L235.091 185.775L238.991 171.625H242.191L245.816 185.7L249.441 171.625H252.491ZM253.891 182.05C253.891 180.667 254.175 179.442 254.741 178.375C255.325 177.308 256.108 176.483 257.091 175.9C258.091 175.3 259.191 175 260.391 175C261.475 175 262.416 175.217 263.216 175.65C264.033 176.067 264.683 176.592 265.166 177.225V175.225H268.041V189H265.166V186.95C264.683 187.6 264.025 188.142 263.191 188.575C262.358 189.008 261.408 189.225 260.341 189.225C259.158 189.225 258.075 188.925 257.091 188.325C256.108 187.708 255.325 186.858 254.741 185.775C254.175 184.675 253.891 183.433 253.891 182.05ZM265.166 182.1C265.166 181.15 264.966 180.325 264.566 179.625C264.183 178.925 263.675 178.392 263.041 178.025C262.408 177.658 261.725 177.475 260.991 177.475C260.258 177.475 259.575 177.658 258.941 178.025C258.308 178.375 257.791 178.9 257.391 179.6C257.008 180.283 256.816 181.1 256.816 182.05C256.816 183 257.008 183.833 257.391 184.55C257.791 185.267 258.308 185.817 258.941 186.2C259.591 186.567 260.275 186.75 260.991 186.75C261.725 186.75 262.408 186.567 263.041 186.2C263.675 185.833 264.183 185.3 264.566 184.6C264.966 183.883 265.166 183.05 265.166 182.1ZM274.635 177.225C275.051 176.525 275.601 175.983 276.285 175.6C276.985 175.2 277.81 175 278.76 175V177.95H278.035C276.918 177.95 276.068 178.233 275.485 178.8C274.918 179.367 274.635 180.35 274.635 181.75V189H271.785V175.225H274.635V177.225ZM288.329 175C289.413 175 290.379 175.225 291.229 175.675C292.096 176.125 292.771 176.792 293.254 177.675C293.738 178.558 293.979 179.625 293.979 180.875V189H291.154V181.3C291.154 180.067 290.846 179.125 290.229 178.475C289.613 177.808 288.771 177.475 287.704 177.475C286.638 177.475 285.788 177.808 285.154 178.475C284.538 179.125 284.229 180.067 284.229 181.3V189H281.379V175.225H284.229V176.8C284.696 176.233 285.288 175.792 286.004 175.475C286.738 175.158 287.513 175 288.329 175ZM299.065 173.4C298.548 173.4 298.115 173.225 297.765 172.875C297.415 172.525 297.24 172.092 297.24 171.575C297.24 171.058 297.415 170.625 297.765 170.275C298.115 169.925 298.548 169.75 299.065 169.75C299.565 169.75 299.99 169.925 300.34 170.275C300.69 170.625 300.865 171.058 300.865 171.575C300.865 172.092 300.69 172.525 300.34 172.875C299.99 173.225 299.565 173.4 299.065 173.4ZM300.465 175.225V189H297.615V175.225H300.465ZM311.157 175C312.24 175 313.207 175.225 314.057 175.675C314.923 176.125 315.598 176.792 316.082 177.675C316.565 178.558 316.807 179.625 316.807 180.875V189H313.982V181.3C313.982 180.067 313.673 179.125 313.057 178.475C312.44 177.808 311.598 177.475 310.532 177.475C309.465 177.475 308.615 177.808 307.982 178.475C307.365 179.125 307.057 180.067 307.057 181.3V189H304.207V175.225H307.057V176.8C307.523 176.233 308.115 175.792 308.832 175.475C309.565 175.158 310.34 175 311.157 175ZM325.992 175C327.059 175 328 175.217 328.817 175.65C329.65 176.067 330.3 176.592 330.767 177.225V175.225H333.642V189.225C333.642 190.492 333.375 191.617 332.842 192.6C332.309 193.6 331.534 194.383 330.517 194.95C329.517 195.517 328.317 195.8 326.917 195.8C325.05 195.8 323.5 195.358 322.267 194.475C321.034 193.608 320.334 192.425 320.167 190.925H322.992C323.209 191.642 323.667 192.217 324.367 192.65C325.084 193.1 325.934 193.325 326.917 193.325C328.067 193.325 328.992 192.975 329.692 192.275C330.409 191.575 330.767 190.558 330.767 189.225V186.925C330.284 187.575 329.625 188.125 328.792 188.575C327.975 189.008 327.042 189.225 325.992 189.225C324.792 189.225 323.692 188.925 322.692 188.325C321.709 187.708 320.925 186.858 320.342 185.775C319.775 184.675 319.492 183.433 319.492 182.05C319.492 180.667 319.775 179.442 320.342 178.375C320.925 177.308 321.709 176.483 322.692 175.9C323.692 175.3 324.792 175 325.992 175ZM330.767 182.1C330.767 181.15 330.567 180.325 330.167 179.625C329.784 178.925 329.275 178.392 328.642 178.025C328.009 177.658 327.325 177.475 326.592 177.475C325.859 177.475 325.175 177.658 324.542 178.025C323.909 178.375 323.392 178.9 322.992 179.6C322.609 180.283 322.417 181.1 322.417 182.05C322.417 183 322.609 183.833 322.992 184.55C323.392 185.267 323.909 185.817 324.542 186.2C325.192 186.567 325.875 186.75 326.592 186.75C327.325 186.75 328.009 186.567 328.642 186.2C329.275 185.833 329.784 185.3 330.167 184.6C330.567 183.883 330.767 183.05 330.767 182.1Z" fill="#941C00"/>
<path d="M438.15 171.625V173.95H433.525V189H430.675V173.95H426.025V171.625H438.15ZM440.086 182.05C440.086 180.667 440.369 179.442 440.936 178.375C441.519 177.308 442.303 176.483 443.286 175.9C444.286 175.3 445.386 175 446.586 175C447.669 175 448.611 175.217 449.411 175.65C450.228 176.067 450.878 176.592 451.361 177.225V175.225H454.236V189H451.361V186.95C450.878 187.6 450.219 188.142 449.386 188.575C448.553 189.008 447.603 189.225 446.536 189.225C445.353 189.225 444.269 188.925 443.286 188.325C442.303 187.708 441.519 186.858 440.936 185.775C440.369 184.675 440.086 183.433 440.086 182.05ZM451.361 182.1C451.361 181.15 451.161 180.325 450.761 179.625C450.378 178.925 449.869 178.392 449.236 178.025C448.603 177.658 447.919 177.475 447.186 177.475C446.453 177.475 445.769 177.658 445.136 178.025C444.503 178.375 443.986 178.9 443.586 179.6C443.203 180.283 443.011 181.1 443.011 182.05C443.011 183 443.203 183.833 443.586 184.55C443.986 185.267 444.503 185.817 445.136 186.2C445.786 186.567 446.469 186.75 447.186 186.75C447.919 186.75 448.603 186.567 449.236 186.2C449.869 185.833 450.378 185.3 450.761 184.6C451.161 183.883 451.361 183.05 451.361 182.1ZM461.304 177.55V185.175C461.304 185.692 461.421 186.067 461.654 186.3C461.904 186.517 462.321 186.625 462.904 186.625H464.654V189H462.404C461.121 189 460.138 188.7 459.454 188.1C458.771 187.5 458.429 186.525 458.429 185.175V177.55H456.804V175.225H458.429V171.8H461.304V175.225H464.654V177.55H461.304ZM470.606 177.55V185.175C470.606 185.692 470.723 186.067 470.956 186.3C471.206 186.517 471.623 186.625 472.206 186.625H473.956V189H471.706C470.423 189 469.44 188.7 468.756 188.1C468.073 187.5 467.731 186.525 467.731 185.175V177.55H466.106V175.225H467.731V171.8H470.606V175.225H473.956V177.55H470.606ZM489.058 175.225V189H486.208V187.375C485.758 187.942 485.166 188.392 484.433 188.725C483.716 189.042 482.95 189.2 482.133 189.2C481.05 189.2 480.075 188.975 479.208 188.525C478.358 188.075 477.683 187.408 477.183 186.525C476.7 185.642 476.458 184.575 476.458 183.325V175.225H479.283V182.9C479.283 184.133 479.591 185.083 480.208 185.75C480.825 186.4 481.666 186.725 482.733 186.725C483.8 186.725 484.641 186.4 485.258 185.75C485.891 185.083 486.208 184.133 486.208 182.9V175.225H489.058ZM500.513 185.125C502.113 183.742 503.371 182.608 504.288 181.725C505.221 180.825 505.996 179.892 506.613 178.925C507.229 177.958 507.538 176.992 507.538 176.025C507.538 175.025 507.296 174.242 506.813 173.675C506.346 173.108 505.604 172.825 504.588 172.825C503.604 172.825 502.838 173.142 502.288 173.775C501.754 174.392 501.471 175.225 501.438 176.275H498.688C498.738 174.375 499.304 172.925 500.388 171.925C501.488 170.908 502.879 170.4 504.563 170.4C506.379 170.4 507.796 170.9 508.813 171.9C509.846 172.9 510.363 174.233 510.363 175.9C510.363 177.1 510.054 178.258 509.438 179.375C508.838 180.475 508.113 181.467 507.263 182.35C506.429 183.217 505.363 184.225 504.063 185.375L502.938 186.375H510.863V188.75H498.713V186.675L500.513 185.125ZM512.991 173.375V170.775H518.191V189H515.316V173.375H512.991ZM522.106 179.65C522.106 176.767 522.59 174.517 523.556 172.9C524.54 171.267 526.223 170.45 528.606 170.45C530.99 170.45 532.665 171.267 533.631 172.9C534.615 174.517 535.106 176.767 535.106 179.65C535.106 182.567 534.615 184.85 533.631 186.5C532.665 188.133 530.99 188.95 528.606 188.95C526.223 188.95 524.54 188.133 523.556 186.5C522.59 184.85 522.106 182.567 522.106 179.65ZM532.306 179.65C532.306 178.3 532.215 177.158 532.031 176.225C531.865 175.292 531.515 174.533 530.981 173.95C530.448 173.35 529.656 173.05 528.606 173.05C527.556 173.05 526.765 173.35 526.231 173.95C525.698 174.533 525.34 175.292 525.156 176.225C524.99 177.158 524.906 178.3 524.906 179.65C524.906 181.05 524.99 182.225 525.156 183.175C525.323 184.125 525.673 184.892 526.206 185.475C526.756 186.058 527.556 186.35 528.606 186.35C529.656 186.35 530.448 186.058 530.981 185.475C531.531 184.892 531.89 184.125 532.056 183.175C532.223 182.225 532.306 181.05 532.306 179.65ZM539.697 185.125C541.297 183.742 542.555 182.608 543.472 181.725C544.405 180.825 545.18 179.892 545.797 178.925C546.414 177.958 546.722 176.992 546.722 176.025C546.722 175.025 546.48 174.242 545.997 173.675C545.53 173.108 544.789 172.825 543.772 172.825C542.789 172.825 542.022 173.142 541.472 173.775C540.939 174.392 540.655 175.225 540.622 176.275H537.872C537.922 174.375 538.489 172.925 539.572 171.925C540.672 170.908 542.064 170.4 543.747 170.4C545.564 170.4 546.98 170.9 547.997 171.9C549.03 172.9 549.547 174.233 549.547 175.9C549.547 177.1 549.239 178.258 548.622 179.375C548.022 180.475 547.297 181.467 546.447 182.35C545.614 183.217 544.547 184.225 543.247 185.375L542.122 186.375H550.047V188.75H537.897V186.675L539.697 185.125ZM552.176 173.375V170.775H557.376V189H554.501V173.375H552.176ZM569.61 173.4C569.093 173.4 568.66 173.225 568.31 172.875C567.96 172.525 567.785 172.092 567.785 171.575C567.785 171.058 567.96 170.625 568.31 170.275C568.66 169.925 569.093 169.75 569.61 169.75C570.11 169.75 570.535 169.925 570.885 170.275C571.235 170.625 571.41 171.058 571.41 171.575C571.41 172.092 571.235 172.525 570.885 172.875C570.535 173.225 570.11 173.4 569.61 173.4ZM571.01 175.225V189H568.16V175.225H571.01ZM579.752 189.225C578.669 189.225 577.694 189.033 576.827 188.65C575.977 188.25 575.302 187.717 574.802 187.05C574.302 186.367 574.035 185.608 574.002 184.775H576.952C577.002 185.358 577.277 185.85 577.777 186.25C578.294 186.633 578.935 186.825 579.702 186.825C580.502 186.825 581.119 186.675 581.552 186.375C582.002 186.058 582.227 185.658 582.227 185.175C582.227 184.658 581.977 184.275 581.477 184.025C580.994 183.775 580.219 183.5 579.152 183.2C578.119 182.917 577.277 182.642 576.627 182.375C575.977 182.108 575.41 181.7 574.927 181.15C574.46 180.6 574.227 179.875 574.227 178.975C574.227 178.242 574.444 177.575 574.877 176.975C575.31 176.358 575.927 175.875 576.727 175.525C577.544 175.175 578.477 175 579.527 175C581.094 175 582.352 175.4 583.302 176.2C584.269 176.983 584.785 178.058 584.852 179.425H582.002C581.952 178.808 581.702 178.317 581.252 177.95C580.802 177.583 580.194 177.4 579.427 177.4C578.677 177.4 578.102 177.542 577.702 177.825C577.302 178.108 577.102 178.483 577.102 178.95C577.102 179.317 577.235 179.625 577.502 179.875C577.769 180.125 578.094 180.325 578.477 180.475C578.86 180.608 579.427 180.783 580.177 181C581.177 181.267 581.994 181.542 582.627 181.825C583.277 182.092 583.835 182.492 584.302 183.025C584.769 183.558 585.01 184.267 585.027 185.15C585.027 185.933 584.81 186.633 584.377 187.25C583.944 187.867 583.327 188.35 582.527 188.7C581.744 189.05 580.819 189.225 579.752 189.225ZM603.626 189L599.626 182.05H597.451V189H594.601V171.625H600.601C601.934 171.625 603.059 171.858 603.976 172.325C604.909 172.792 605.601 173.417 606.051 174.2C606.517 174.983 606.751 175.858 606.751 176.825C606.751 177.958 606.417 178.992 605.751 179.925C605.101 180.842 604.092 181.467 602.726 181.8L607.026 189H603.626ZM597.451 179.775H600.601C601.667 179.775 602.467 179.508 603.001 178.975C603.551 178.442 603.826 177.725 603.826 176.825C603.826 175.925 603.559 175.225 603.026 174.725C602.492 174.208 601.684 173.95 600.601 173.95H597.451V179.775ZM613.221 171.625V182.7C613.221 184.017 613.563 185.008 614.246 185.675C614.946 186.342 615.913 186.675 617.146 186.675C618.396 186.675 619.363 186.342 620.046 185.675C620.746 185.008 621.096 184.017 621.096 182.7V171.625H623.946V182.65C623.946 184.067 623.638 185.267 623.021 186.25C622.405 187.233 621.58 187.967 620.546 188.45C619.513 188.933 618.371 189.175 617.121 189.175C615.871 189.175 614.73 188.933 613.696 188.45C612.68 187.967 611.871 187.233 611.271 186.25C610.671 185.267 610.371 184.067 610.371 182.65V171.625H613.221ZM630.507 186.7H636.382V189H627.657V171.625H630.507V186.7ZM646.71 173.4C646.193 173.4 645.76 173.225 645.41 172.875C645.06 172.525 644.885 172.092 644.885 171.575C644.885 171.058 645.06 170.625 645.41 170.275C645.76 169.925 646.193 169.75 646.71 169.75C647.21 169.75 647.635 169.925 647.985 170.275C648.335 170.625 648.51 171.058 648.51 171.575C648.51 172.092 648.335 172.525 647.985 172.875C647.635 173.225 647.21 173.4 646.71 173.4ZM648.11 175.225V189H645.26V175.225H648.11ZM656.852 189.225C655.768 189.225 654.793 189.033 653.927 188.65C653.077 188.25 652.402 187.717 651.902 187.05C651.402 186.367 651.135 185.608 651.102 184.775H654.052C654.102 185.358 654.377 185.85 654.877 186.25C655.393 186.633 656.035 186.825 656.802 186.825C657.602 186.825 658.218 186.675 658.652 186.375C659.102 186.058 659.327 185.658 659.327 185.175C659.327 184.658 659.077 184.275 658.577 184.025C658.093 183.775 657.318 183.5 656.252 183.2C655.218 182.917 654.377 182.642 653.727 182.375C653.077 182.108 652.51 181.7 652.027 181.15C651.56 180.6 651.327 179.875 651.327 178.975C651.327 178.242 651.543 177.575 651.977 176.975C652.41 176.358 653.027 175.875 653.827 175.525C654.643 175.175 655.577 175 656.627 175C658.193 175 659.452 175.4 660.402 176.2C661.368 176.983 661.885 178.058 661.952 179.425H659.102C659.052 178.808 658.802 178.317 658.352 177.95C657.902 177.583 657.293 177.4 656.527 177.4C655.777 177.4 655.202 177.542 654.802 177.825C654.402 178.108 654.202 178.483 654.202 178.95C654.202 179.317 654.335 179.625 654.602 179.875C654.868 180.125 655.193 180.325 655.577 180.475C655.96 180.608 656.527 180.783 657.277 181C658.277 181.267 659.093 181.542 659.727 181.825C660.377 182.092 660.935 182.492 661.402 183.025C661.868 183.558 662.11 184.267 662.127 185.15C662.127 185.933 661.91 186.633 661.477 187.25C661.043 187.867 660.427 188.35 659.627 188.7C658.843 189.05 657.918 189.225 656.852 189.225ZM678.025 185.65L672.275 179.975L678.025 174.3H681.625L675.85 179.975L681.625 185.65H678.025ZM694.702 185.125C696.302 183.742 697.56 182.608 698.477 181.725C699.41 180.825 700.185 179.892 700.802 178.925C701.419 177.958 701.727 176.992 701.727 176.025C701.727 175.025 701.485 174.242 701.002 173.675C700.535 173.108 699.794 172.825 698.777 172.825C697.794 172.825 697.027 173.142 696.477 173.775C695.944 174.392 695.66 175.225 695.627 176.275H692.877C692.927 174.375 693.494 172.925 694.577 171.925C695.677 170.908 697.069 170.4 698.752 170.4C700.569 170.4 701.985 170.9 703.002 171.9C704.035 172.9 704.552 174.233 704.552 175.9C704.552 177.1 704.244 178.258 703.627 179.375C703.027 180.475 702.302 181.467 701.452 182.35C700.619 183.217 699.552 184.225 698.252 185.375L697.127 186.375H705.052V188.75H692.902V186.675L694.702 185.125ZM707.556 179.65C707.556 176.767 708.039 174.517 709.006 172.9C709.989 171.267 711.672 170.45 714.056 170.45C716.439 170.45 718.114 171.267 719.081 172.9C720.064 174.517 720.556 176.767 720.556 179.65C720.556 182.567 720.064 184.85 719.081 186.5C718.114 188.133 716.439 188.95 714.056 188.95C711.672 188.95 709.989 188.133 709.006 186.5C708.039 184.85 707.556 182.567 707.556 179.65ZM717.756 179.65C717.756 178.3 717.664 177.158 717.481 176.225C717.314 175.292 716.964 174.533 716.431 173.95C715.897 173.35 715.106 173.05 714.056 173.05C713.006 173.05 712.214 173.35 711.681 173.95C711.147 174.533 710.789 175.292 710.606 176.225C710.439 177.158 710.356 178.3 710.356 179.65C710.356 181.05 710.439 182.225 710.606 183.175C710.772 184.125 711.122 184.892 711.656 185.475C712.206 186.058 713.006 186.35 714.056 186.35C715.106 186.35 715.897 186.058 716.431 185.475C716.981 184.892 717.339 184.125 717.506 183.175C717.672 182.225 717.756 181.05 717.756 179.65ZM723.121 175.175C723.121 173.958 723.471 173.008 724.171 172.325C724.888 171.625 725.805 171.275 726.921 171.275C728.038 171.275 728.946 171.625 729.646 172.325C730.363 173.008 730.721 173.958 730.721 175.175C730.721 176.392 730.363 177.35 729.646 178.05C728.946 178.75 728.038 179.1 726.921 179.1C725.805 179.1 724.888 178.75 724.171 178.05C723.471 177.35 723.121 176.392 723.121 175.175ZM738.371 171.6L728.396 189H725.596L735.571 171.6H738.371ZM726.921 173C725.871 173 725.346 173.725 725.346 175.175C725.346 176.642 725.871 177.375 726.921 177.375C727.421 177.375 727.805 177.2 728.071 176.85C728.355 176.483 728.496 175.925 728.496 175.175C728.496 173.725 727.971 173 726.921 173ZM733.296 185.4C733.296 184.183 733.646 183.233 734.346 182.55C735.063 181.85 735.98 181.5 737.096 181.5C738.196 181.5 739.096 181.85 739.796 182.55C740.513 183.233 740.871 184.183 740.871 185.4C740.871 186.617 740.513 187.575 739.796 188.275C739.096 188.975 738.196 189.325 737.096 189.325C735.98 189.325 735.063 188.975 734.346 188.275C733.646 187.575 733.296 186.617 733.296 185.4ZM737.071 183.225C736.021 183.225 735.496 183.95 735.496 185.4C735.496 186.85 736.021 187.575 737.071 187.575C738.121 187.575 738.646 186.85 738.646 185.4C738.646 183.95 738.121 183.225 737.071 183.225ZM744.945 189.175C744.428 189.175 743.995 189 743.645 188.65C743.295 188.3 743.12 187.867 743.12 187.35C743.12 186.833 743.295 186.4 743.645 186.05C743.995 185.7 744.428 185.525 744.945 185.525C745.445 185.525 745.87 185.7 746.22 186.05C746.57 186.4 746.745 186.833 746.745 187.35C746.745 187.867 746.57 188.3 746.22 188.65C745.87 189 745.445 189.175 744.945 189.175Z" fill="black"/>
<path d="M1609.75 172.5L1616 178.75L1622.25 172.5H1609.75Z" fill="#333333"/>
</svg>