<svg width="100%" height="1000" viewBox="0 100 100 1000" xmlns="http://www.w3.org/2000/svg">
<g filter="url(#filter5_d_434_120)">    
<rect x="98" y="96" width="1403" height="98" transform="rotate(90 98 96)" fill="white"/>
</g>
<path d="M31.25 170.548V198.673C31.25 199.502 31.5792 200.297 32.1653 200.883C32.7513 201.469 33.5462 201.798 34.375 201.798H65.625C66.4538 201.798 67.2487 201.469 67.8347 200.883C68.4208 200.297 68.75 199.502 68.75 198.673V170.548M31.25 170.548L50 151.798L68.75 170.548M31.25 170.548L25 176.798M68.75 170.548L75 176.798M43.75 179.923H56.25V192.423H43.75V179.923Z" stroke="#009460" stroke-width="5" stroke-linecap="round" stroke-linejoin="round" fill="white"/>
<path d="M39.3332 304.215C38.5422 304.215 37.8787 303.947 37.3427 303.411C36.8067 302.875 36.5397 302.212 36.5415 301.423V256.756C36.5415 255.965 36.8095 255.302 37.3455 254.766C37.8815 254.23 38.5441 253.963 39.3332 253.965H44.9165V248.381H56.0832V253.965H61.6665C62.4575 253.965 63.1209 254.233 63.6569 254.769C64.1929 255.305 64.46 255.967 64.4582 256.756V276.298C59.8054 276.345 55.8505 277.985 52.5936 281.22C49.3366 284.454 47.7082 288.397 47.7082 293.048C47.7082 295.188 48.0804 297.212 48.8248 299.12C49.5693 301.027 50.6162 302.726 51.9655 304.215H39.3332ZM42.1248 270.715H58.8748V259.548H42.1248V270.715ZM63.0623 304.215V295.84H56.0832L65.854 281.881V290.256H72.8331L63.0623 304.215Z" fill="#00E091"/>
<g clip-path="url(#clip1_434_120)">
<path d="M56.7816 382.975L57.4795 376.694L58.6688 365.991C58.6947 365.757 58.6709 365.52 58.5992 365.296C58.5274 365.071 58.4091 364.865 58.2521 364.689C58.0951 364.514 57.9029 364.374 57.688 364.277C57.4731 364.181 57.2404 364.131 57.0049 364.131H43.9958C43.7603 364.131 43.5276 364.181 43.3127 364.277C43.0978 364.374 42.9056 364.514 42.7486 364.689C42.5916 364.865 42.4733 365.071 42.4016 365.296C42.3298 365.52 42.306 365.757 42.3319 365.991L44.7523 387.766C44.7977 388.175 44.9924 388.554 45.2994 388.829C45.6064 389.104 46.004 389.256 46.4161 389.256H47.7087" stroke="#00E091" stroke-width="4" stroke-linecap="round" fill="white"/>
<path d="M29.5627 361.34C31.4136 361.34 33.1888 360.604 34.4977 359.296C35.8065 357.987 36.5418 356.211 36.5418 354.361C36.5418 352.51 35.8065 350.734 34.4977 349.425C33.1888 348.117 31.4136 347.381 29.5627 347.381C27.7117 347.381 25.9365 348.117 24.6276 349.425C23.3188 350.734 22.5835 352.51 22.5835 354.361C22.5835 356.211 23.3188 357.987 24.6276 359.296C25.9365 360.604 27.7117 361.34 29.5627 361.34Z" stroke="#00E091" stroke-width="4" stroke-miterlimit="1.5" stroke-linecap="round" stroke-linejoin="round" fill="white"/>
<path d="M29.5625 354.36L42.125 364.131M29.5625 396.235L43.5208 385.069M71.4375 354.36L58.875 364.131" stroke="#00E091" stroke-width="4" stroke-linecap="round" stroke-linejoin="round"/>
<path d="M29.5627 403.215C31.4136 403.215 33.1888 402.479 34.4977 401.17C35.8065 399.862 36.5418 398.086 36.5418 396.235C36.5418 394.384 35.8065 392.609 34.4977 391.3C33.1888 389.992 31.4136 389.256 29.5627 389.256C27.7117 389.256 25.9365 389.992 24.6276 391.3C23.3188 392.609 22.5835 394.384 22.5835 396.235C22.5835 398.086 23.3188 399.862 24.6276 401.17C25.9365 402.479 27.7117 403.215 29.5627 403.215ZM71.4376 361.34C73.2886 361.34 75.0638 360.604 76.3726 359.296C77.6815 357.987 78.4168 356.211 78.4168 354.361C78.4168 352.51 77.6815 350.734 76.3726 349.425C75.0638 348.117 73.2886 347.381 71.4376 347.381C69.5866 347.381 67.8115 348.117 66.5026 349.425C65.1938 350.734 64.4585 352.51 64.4585 354.361C64.4585 356.211 65.1938 357.987 66.5026 359.296C67.8115 360.604 69.5866 361.34 71.4376 361.34Z" stroke="#00E091" stroke-width="4" stroke-miterlimit="1.5" stroke-linecap="round" stroke-linejoin="round" fill="white"/>
<path d="M81.2083 394.84V400.423M58.875 394.84V400.423M64.4583 394.84V400.423" stroke="#00E091" stroke-width="4" stroke-linecap="round" stroke-linejoin="round" />
<path d="M53.292 404.331V390.931C53.292 390.711 53.3353 390.494 53.4195 390.29C53.5037 390.087 53.627 389.902 53.7826 389.747C53.9381 389.591 54.1228 389.468 54.326 389.384C54.5292 389.3 54.747 389.256 54.967 389.256H73.9503C74.1703 389.256 74.3881 389.3 74.5913 389.384C74.7945 389.468 74.9792 389.591 75.1347 389.747C75.2903 389.902 75.4136 390.087 75.4978 390.29C75.582 390.494 75.6253 390.711 75.6253 390.931V404.331C75.6253 404.776 75.4488 405.202 75.1347 405.516C74.8206 405.83 74.3945 406.006 73.9503 406.006H54.967C54.5228 406.006 54.0967 405.83 53.7826 405.516C53.4685 405.202 53.292 404.776 53.292 404.331Z" stroke="#00E091" stroke-width="4" fill="white"/>
</g>
<path d="M70.0417 482.673C69.2507 482.673 68.5872 482.405 68.0512 481.869C67.5152 481.333 67.2481 480.671 67.25 479.881C67.25 479.09 67.518 478.427 68.054 477.891C68.59 477.355 69.2526 477.088 70.0417 477.09H72.8333C73.6243 477.09 74.2878 477.358 74.8238 477.894C75.3598 478.43 75.6269 479.092 75.625 479.881C75.625 480.672 75.357 481.336 74.821 481.872C74.285 482.408 73.6225 482.675 72.8333 482.673H70.0417ZM70.0417 493.84C69.2507 493.84 68.5872 493.572 68.0512 493.036C67.5152 492.5 67.2481 491.837 67.25 491.048C67.25 490.257 67.518 489.594 68.054 489.058C68.59 488.522 69.2526 488.255 70.0417 488.256H72.8333C73.6243 488.256 74.2878 488.524 74.8238 489.06C75.3598 489.596 75.6269 490.259 75.625 491.048C75.625 491.839 75.357 492.503 74.821 493.039C74.285 493.575 73.6225 493.842 72.8333 493.84H70.0417ZM56.0833 496.631C54.5479 496.631 53.233 496.084 52.1387 494.99C51.0444 493.896 50.4981 492.582 50.5 491.048H47.7083C46.9174 491.048 46.2539 490.78 45.7179 490.244C45.1819 489.708 44.9148 489.045 44.9167 488.256V482.673C44.9167 481.882 45.1847 481.219 45.7207 480.683C46.2567 480.147 46.9192 479.88 47.7083 479.881H50.5C50.5 478.346 51.0472 477.031 52.1415 475.937C53.2358 474.842 54.5498 474.296 56.0833 474.298H61.6667C62.4576 474.298 63.1211 474.566 63.6571 475.102C64.1931 475.638 64.4602 476.301 64.4583 477.09V493.84C64.4583 494.631 64.1903 495.294 63.6543 495.83C63.1183 496.366 62.4558 496.633 61.6667 496.631H56.0833ZM36.5417 488.256C33.4708 488.256 30.842 487.163 28.6552 484.976C26.4684 482.789 25.375 480.161 25.375 477.09C25.375 474.019 26.4684 471.39 28.6552 469.203C30.842 467.016 33.4708 465.923 36.5417 465.923H40.7292C41.8924 465.923 42.8815 465.515 43.6967 464.7C44.5119 463.885 44.9185 462.897 44.9167 461.736C44.9167 460.572 44.5091 459.583 43.6939 458.768C42.8788 457.953 41.8905 457.546 40.7292 457.548H30.9583C30.1674 457.548 29.5039 457.28 28.9679 456.744C28.4319 456.208 28.1648 455.546 28.1667 454.756C28.1667 453.965 28.4347 453.302 28.9707 452.766C29.5067 452.23 30.1692 451.963 30.9583 451.965H40.7292C43.4278 451.965 45.7309 452.919 47.6385 454.826C49.5462 456.734 50.5 459.037 50.5 461.736C50.5 464.434 49.5462 466.737 47.6385 468.645C45.7309 470.553 43.4278 471.506 40.7292 471.506H36.5417C35.0063 471.506 33.6914 472.054 32.597 473.148C31.5027 474.242 30.9565 475.556 30.9583 477.09C30.9583 478.625 31.5055 479.94 32.5998 481.034C33.6942 482.129 35.0081 482.675 36.5417 482.673H39.3333C40.1243 482.673 40.7878 482.941 41.3238 483.477C41.8598 484.013 42.1269 484.676 42.125 485.465C42.125 486.256 41.857 486.919 41.321 487.455C40.785 487.991 40.1224 488.258 39.3333 488.256H36.5417Z" fill="#00E091"/>
<path fill-rule="evenodd" clip-rule="evenodd" d="M68.9829 550.131C68.9829 548.923 68.5089 547.765 67.6654 546.911C66.8218 546.057 65.6776 545.578 64.4846 545.578H28.4983C27.3053 545.578 26.1611 546.057 25.3175 546.911C24.4739 547.765 24 548.923 24 550.131V595.661C24 596.868 24.4739 598.026 25.3175 598.88C26.1611 599.734 27.3053 600.214 28.4983 600.214H46.4914V595.661H28.4983V550.131H64.4846V563.79H68.9829V550.131Z" fill="#00E091"/>
<path fill-rule="evenodd" clip-rule="evenodd" d="M59.9858 559.237V563.79H32.9961V559.237H59.9858Z" fill="#00E091"/>
<path d="M32.9961 577.449H46.491V582.002H32.9961V577.449ZM32.9961 568.343H59.9858V572.896H32.9961V568.343Z" fill="#00E091"/>
<path d="M66.1697 594.75H62.8003C62.6302 594.75 62.4662 594.686 62.3396 594.571C62.213 594.457 62.1326 594.299 62.1139 594.128L61.1155 585.036C61.1048 584.938 61.1146 584.84 61.1442 584.746C61.1739 584.652 61.2226 584.566 61.2874 584.493C61.3522 584.42 61.4314 584.361 61.5201 584.321C61.6087 584.281 61.7047 584.26 61.8019 584.26H67.1681C67.2652 584.26 67.3613 584.281 67.4499 584.321C67.5385 584.361 67.6178 584.42 67.6826 584.493C67.7474 584.566 67.7961 584.652 67.8257 584.746C67.8554 584.84 67.8651 584.938 67.8545 585.036L66.8561 594.128C66.8374 594.299 66.757 594.457 66.6304 594.571C66.5038 594.686 66.3397 594.75 66.1697 594.75Z" stroke="#00E091" stroke-width="3" stroke-linecap="round"/>
<path d="M55.8477 583.094C56.6112 583.094 57.3434 582.787 57.8833 582.241C58.4232 581.694 58.7266 580.953 58.7266 580.18C58.7266 579.408 58.4232 578.666 57.8833 578.12C57.3434 577.573 56.6112 577.266 55.8477 577.266C55.0841 577.266 54.3519 577.573 53.812 578.12C53.2721 578.666 52.9688 579.408 52.9688 580.18C52.9688 580.953 53.2721 581.694 53.812 582.241C54.3519 582.787 55.0841 583.094 55.8477 583.094Z" stroke="#00E091" stroke-width="3" stroke-miterlimit="1.5" stroke-linecap="round" stroke-linejoin="round" fill="white"/>
<path d="M55.8472 580.18L61.0292 584.26M55.8472 597.664L61.605 593.002M73.1206 580.18L67.9386 584.26M73.1206 597.664L67.3628 593.002" stroke="#00E091" stroke-width="3" stroke-linecap="round" stroke-linejoin="round"/>
<path d="M55.8477 600.578C56.6112 600.578 57.3434 600.271 57.8833 599.724C58.4232 599.178 58.7266 598.437 58.7266 597.664C58.7266 596.891 58.4232 596.15 57.8833 595.603C57.3434 595.057 56.6112 594.75 55.8477 594.75C55.0841 594.75 54.3519 595.057 53.812 595.603C53.2721 596.15 52.9688 596.891 52.9688 597.664C52.9688 598.437 53.2721 599.178 53.812 599.724C54.3519 600.271 55.0841 600.578 55.8477 600.578ZM73.1211 583.094C73.8846 583.094 74.6169 582.787 75.1568 582.241C75.6967 581.694 76 580.953 76 580.18C76 579.408 75.6967 578.666 75.1568 578.12C74.6169 577.573 73.8846 577.266 73.1211 577.266C72.3576 577.266 71.6253 577.573 71.0854 578.12C70.5455 578.666 70.2422 579.408 70.2422 580.18C70.2422 580.953 70.5455 581.694 71.0854 582.241C71.6253 582.787 72.3576 583.094 73.1211 583.094ZM73.1211 600.578C73.8846 600.578 74.6169 600.271 75.1568 599.724C75.6967 599.178 76 598.437 76 597.664C76 596.891 75.6967 596.15 75.1568 595.603C74.6169 595.057 73.8846 594.75 73.1211 594.75C72.3576 594.75 71.6253 595.057 71.0854 595.603C70.5455 596.15 70.2422 596.891 70.2422 597.664C70.2422 598.437 70.5455 599.178 71.0854 599.724C71.6253 600.271 72.3576 600.578 73.1211 600.578Z" stroke="#00E091" stroke-width="3" stroke-miterlimit="1.5" stroke-linecap="round" stroke-linejoin="round" fill="white"/>
<path d="M74.7923 1042.84L72.2021 1045.42L69.6983 1047.92L66.5098 1051.1C65.6447 1051.16 64.7773 1051.03 63.9657 1050.72C63.1541 1050.42 62.417 1049.95 61.804 1049.34C61.1909 1048.72 60.716 1047.99 60.411 1047.18C60.106 1046.37 59.978 1045.51 60.0356 1044.64L63.2241 1041.46L65.7279 1038.97L68.3181 1036.38C68.3989 1036.3 68.4443 1036.19 68.4443 1036.08C68.4443 1035.97 68.3989 1035.86 68.3181 1035.78C68.2873 1035.74 68.2504 1035.73 68.2142 1035.71L68.2149 1035.71L68.2082 1035.7C68.1863 1035.69 68.1634 1035.68 68.1399 1035.67C66.2963 1034.85 64.2988 1034.42 62.2781 1034.42C54.2789 1034.42 47.794 1040.89 47.794 1048.86C47.794 1050.39 48.0339 1051.85 48.472 1053.23L33.3669 1068.29C28.3118 1068.38 24.2368 1072.48 24.2368 1077.54C24.2368 1082.65 28.3928 1086.8 33.5183 1086.8C38.5929 1086.8 42.7107 1082.73 42.7925 1077.69L57.8983 1062.63C59.3152 1063.08 60.7929 1063.31 62.2794 1063.31C70.2785 1063.31 76.7634 1056.84 76.7634 1048.86C76.7634 1046.78 76.3038 1044.81 75.5058 1043.02C75.4975 1042.99 75.4863 1042.97 75.4724 1042.94L75.4576 1042.91L75.4529 1042.91C75.4368 1042.89 75.4254 1042.86 75.4033 1042.84C75.322 1042.76 75.2121 1042.71 75.0975 1042.71C74.983 1042.71 74.8733 1042.76 74.7923 1042.84ZM37.3534 1077.54C37.3534 1078.56 36.9493 1079.53 36.23 1080.25C35.5108 1080.96 34.5352 1081.37 33.518 1081.37C32.5008 1081.37 31.5252 1080.96 30.8059 1080.25C30.0867 1079.53 29.6826 1078.56 29.6826 1077.54C29.6826 1076.53 30.0867 1075.55 30.8059 1074.84C31.5252 1074.12 32.5008 1073.72 33.518 1073.72C34.5352 1073.72 35.5108 1074.12 36.23 1074.84C36.9493 1075.55 37.3534 1076.53 37.3534 1077.54Z" fill="#00E091"/>
<path d="M33.5415 1001.04V956.505C33.5415 955.716 33.8095 955.055 34.3455 954.52C34.8815 953.986 35.5441 953.72 36.3332 953.721H41.9165V950.938C41.9165 950.149 42.1845 949.487 42.7205 948.953C43.2565 948.418 43.9191 948.152 44.7082 948.154H50.2915C51.0825 948.154 51.746 948.421 52.282 948.956C52.818 949.49 53.0851 950.151 53.0832 950.938V953.721H58.6665C59.4575 953.721 60.121 953.989 60.657 954.523C61.193 955.058 61.4601 955.718 61.4582 956.505V975.991C61.086 975.991 60.7138 976.003 60.3415 976.027C59.9693 976.052 59.5971 976.086 59.2249 976.13C55.1304 976.687 51.6874 978.52 48.8957 981.628C46.104 984.737 44.7082 988.425 44.7082 992.694C44.7082 994.781 45.0804 996.776 45.8249 998.679C46.5693 1000.58 47.6162 1002.3 48.9655 1003.83H36.3332C35.5422 1003.83 34.8787 1003.56 34.3427 1003.03C33.8067 1002.49 33.5397 1001.83 33.5415 1001.04ZM58.6665 995.477H53.0832C52.2922 995.477 51.6287 995.21 51.0927 994.676C50.5567 994.141 50.2897 993.48 50.2915 992.694C50.2915 991.905 50.5595 991.243 51.0955 990.709C51.6315 990.174 52.2941 989.908 53.0832 989.91H58.6665V984.342C58.6665 983.554 58.9345 982.892 59.4705 982.358C60.0065 981.823 60.6691 981.557 61.4582 981.559C62.2492 981.559 62.9127 981.826 63.4487 982.36C63.9847 982.895 64.2517 983.556 64.2499 984.342V989.91H69.8332C70.6242 989.91 71.2877 990.177 71.8237 990.712C72.3597 991.246 72.6267 991.907 72.6249 992.694C72.6249 993.482 72.3569 994.144 71.8209 994.678C71.2849 995.213 70.6223 995.479 69.8332 995.477H64.2499V1001.04C64.2499 1001.83 63.9819 1002.5 63.4459 1003.03C62.9099 1003.56 62.2473 1003.83 61.4582 1003.83C60.6672 1003.83 60.0037 1003.56 59.4677 1003.03C58.9317 1002.49 58.6647 1001.83 58.6665 1001.04V995.477Z" fill="#00E091"/>
</svg>