<svg width="100%" height="100" viewBox="1600 0 300 100" xmlns="http://www.w3.org/2000/svg">
<g clip-path="url(#clip2_434_120)">
<path d="M1659.5 72.62C1651.12 72.62 1643.72 68.332 1639.4 61.9C1639.5 55.2 1652.8 51.515 1659.5 51.515C1666.2 51.515 1679.5 55.2 1679.6 61.9C1677.39 65.1978 1674.39 67.9004 1670.89 69.7697C1667.38 71.6391 1663.47 72.618 1659.5 72.62ZM1659.5 25.05C1662.17 25.05 1664.72 26.1088 1666.61 27.9936C1668.49 29.8783 1669.55 32.4346 1669.55 35.1C1669.55 37.7654 1668.49 40.3217 1666.61 42.2064C1664.72 44.0912 1662.17 45.15 1659.5 45.15C1656.83 45.15 1654.28 44.0912 1652.39 42.2064C1650.51 40.3217 1649.45 37.7654 1649.45 35.1C1649.45 32.4346 1650.51 29.8783 1652.39 27.9936C1654.28 26.1088 1656.83 25.05 1659.5 25.05ZM1659.5 15C1655.1 15 1650.74 15.8665 1646.68 17.55C1642.62 19.2336 1638.92 21.7012 1635.81 24.8119C1629.53 31.0944 1626 39.6152 1626 48.5C1626 57.3848 1629.53 65.9056 1635.81 72.1881C1638.92 75.2988 1642.62 77.7664 1646.68 79.45C1650.74 81.1335 1655.1 82 1659.5 82C1668.38 82 1676.91 78.4705 1683.19 72.1881C1689.47 65.9056 1693 57.3848 1693 48.5C1693 29.9745 1677.92 15 1659.5 15Z" fill="#16C380"/>
</g>    
</svg>
